<?xml version="1.0" encoding="UTF-8"?>
<svg xmlns="http://www.w3.org/2000/svg" xmlns:xlink="http://www.w3.org/1999/xlink" width="193pt" height="193pt" viewBox="0 0 193 193" version="1.1">
<g id="surface1">
<path style=" stroke:none;fill-rule:evenodd;fill:rgb(100%,100%,100%);fill-opacity:1;" d="M 0 0.242188 L 192.757813 0.242188 L 192.757813 193 L 0 193 L 0 0.242188 "/>
<path style=" stroke:none;fill-rule:nonzero;fill:rgb(13.699341%,12.199402%,12.5%);fill-opacity:1;" d="M 173.78125 75.875 C 170.09375 62.089844 162.828125 49.769531 153.035156 39.972656 C 143.230469 30.167969 130.898438 22.894531 117.097656 19.210938 C 110.488281 17.445313 103.542969 16.503906 96.378906 16.503906 C 89.203125 16.503906 82.246094 17.449219 75.628906 19.222656 C 61.835938 22.910156 49.507813 30.179688 39.710938 39.984375 C 29.917969 49.78125 22.65625 62.101563 18.972656 75.882813 C 17.207031 82.5 16.257813 89.449219 16.257813 96.621094 C 16.257813 103.785156 17.203125 110.722656 18.964844 117.332031 C 22.644531 131.117188 29.90625 143.445313 39.695313 153.242188 C 49.496094 163.058594 61.832031 170.335938 75.636719 174.027344 C 82.253906 175.792969 89.203125 176.742188 96.378906 176.742188 C 103.546875 176.742188 110.492188 175.796875 117.105469 174.03125 C 130.898438 170.34375 143.226563 163.078125 153.027344 153.28125 C 162.820313 143.488281 170.085938 131.171875 173.773438 117.394531 C 175.546875 110.769531 176.496094 103.808594 176.496094 96.621094 C 176.496094 89.445313 175.550781 82.492188 173.78125 75.875 Z M 99.097656 25.460938 C 104.503906 25.664063 109.757813 26.472656 114.789063 27.816406 C 127.058594 31.089844 138.019531 37.558594 146.734375 46.269531 C 150.339844 49.871094 153.558594 53.855469 156.324219 58.15625 L 153.429688 59.828125 C 150.8125 55.777344 147.773438 52.023438 144.378906 48.628906 L 138.402344 54.609375 C 131.128906 47.335938 121.976563 41.941406 111.738281 39.207031 L 113.929688 31.039063 C 109.171875 29.769531 104.207031 29.003906 99.097656 28.800781 Z M 120.414063 96.621094 C 120.414063 98.785156 120.125 100.882813 119.589844 102.875 L 144.203125 109.46875 C 141.921875 117.984375 137.441406 125.59375 131.390625 131.640625 L 113.371094 113.621094 C 110.429688 116.5625 106.726563 118.738281 102.585938 119.84375 L 109.183594 144.460938 C 105.097656 145.550781 100.808594 146.140625 96.378906 146.140625 C 91.945313 146.140625 87.648438 145.546875 83.558594 144.457031 L 90.15625 119.839844 C 86.003906 118.730469 82.296875 116.542969 79.351563 113.585938 L 61.332031 131.605469 C 55.285156 125.546875 50.804688 117.925781 48.535156 109.40625 L 73.152344 102.8125 C 72.625 100.835938 72.34375 98.761719 72.34375 96.621094 C 72.34375 94.46875 72.628906 92.386719 73.160156 90.402344 L 48.542969 83.808594 C 50.820313 75.289063 55.300781 67.675781 61.347656 61.621094 L 79.367188 79.640625 C 82.304688 76.695313 86.007813 74.515625 90.148438 73.40625 L 83.550781 48.789063 C 87.644531 47.695313 91.941406 47.105469 96.378906 47.105469 C 100.804688 47.105469 105.09375 47.691406 109.175781 48.78125 L 102.578125 73.398438 C 106.726563 74.503906 110.433594 76.683594 113.378906 79.628906 L 131.398438 61.609375 C 137.449219 67.664063 141.933594 75.28125 144.210938 83.800781 L 119.59375 90.394531 C 120.125 92.382813 120.414063 94.46875 120.414063 96.621094 Z M 46.007813 46.285156 C 54.71875 37.570313 65.671875 31.101563 77.933594 27.824219 C 82.59375 26.578125 87.4375 25.785156 92.421875 25.515625 L 92.421875 28.859375 C 87.734375 29.128906 83.179688 29.875 78.796875 31.046875 L 80.988281 39.214844 C 70.753906 41.953125 61.613281 47.347656 54.34375 54.621094 L 48.363281 48.640625 C 44.972656 52.03125 41.941406 55.785156 39.328125 59.828125 L 36.429688 58.15625 C 39.195313 53.859375 42.414063 49.882813 46.007813 46.285156 Z M 33.089844 129.304688 C 30.761719 124.804688 28.902344 120.023438 27.570313 115.023438 C 26 109.15625 25.160156 102.988281 25.160156 96.621094 C 25.160156 90.246094 26.003906 84.070313 27.578125 78.191406 C 28.910156 73.203125 30.765625 68.429688 33.089844 63.9375 L 35.984375 65.605469 C 33.800781 69.847656 32.054688 74.351563 30.796875 79.054688 L 38.96875 81.242188 C 37.65625 86.148438 36.957031 91.304688 36.957031 96.621094 C 36.957031 101.929688 37.65625 107.074219 38.960938 111.972656 L 30.789063 114.160156 C 32.046875 118.875 33.796875 123.386719 35.984375 127.636719 Z M 92.421875 167.730469 C 87.441406 167.457031 82.597656 166.667969 77.941406 165.421875 C 65.671875 162.140625 54.707031 155.667969 45.992188 146.941406 C 42.402344 143.347656 39.191406 139.378906 36.429688 135.085938 L 39.328125 133.414063 C 41.9375 137.453125 44.964844 141.199219 48.347656 144.589844 L 54.328125 138.609375 C 61.601563 145.890625 70.753906 151.292969 80.992188 154.03125 L 78.804688 162.199219 C 83.183594 163.371094 87.738281 164.113281 92.421875 164.382813 Z M 146.730469 146.976563 C 138.015625 155.6875 127.0625 162.152344 114.800781 165.421875 C 109.761719 166.769531 104.507813 167.582031 99.097656 167.78125 L 99.097656 164.445313 C 104.210938 164.242188 109.175781 163.476563 113.9375 162.203125 L 111.746094 154.03125 C 121.976563 151.300781 131.121094 145.910156 138.390625 138.640625 L 144.371094 144.625 C 147.769531 141.226563 150.808594 137.46875 153.429688 133.414063 L 156.324219 135.089844 C 153.558594 139.394531 150.332031 143.375 146.730469 146.976563 Z M 159.664063 129.304688 L 156.773438 127.636719 C 158.949219 123.40625 160.691406 118.914063 161.949219 114.226563 L 153.777344 112.039063 C 155.09375 107.121094 155.800781 101.957031 155.800781 96.621094 C 155.800781 91.300781 155.097656 86.144531 153.785156 81.234375 L 161.957031 79.046875 C 160.699219 74.347656 158.953125 69.847656 156.773438 65.605469 L 159.664063 63.9375 C 161.988281 68.425781 163.84375 73.199219 165.175781 78.183594 C 166.75 84.0625 167.597656 90.242188 167.597656 96.621094 C 167.597656 103.011719 166.746094 109.199219 165.171875 115.089844 C 163.835938 120.0625 161.984375 124.824219 159.664063 129.304688 "/>
</g>
</svg>
